<?xml version="1.0" encoding="UTF-8" standalone="no"?>
<svg
   xmlns:dc="http://purl.org/dc/elements/1.1/"
   xmlns:cc="http://creativecommons.org/ns#"
   xmlns:rdf="http://www.w3.org/1999/02/22-rdf-syntax-ns#"
   xmlns:svg="http://www.w3.org/2000/svg"
   xmlns="http://www.w3.org/2000/svg"
   xmlns:xlink="http://www.w3.org/1999/xlink"
   xmlns:sodipodi="http://sodipodi.sourceforge.net/DTD/sodipodi-0.dtd"
   xmlns:inkscape="http://www.inkscape.org/namespaces/inkscape"
   width="210mm"
   height="297mm"
   viewBox="0 0 210 297"
   version="1.1"
   id="svg1403"
   inkscape:version="1.0.1 (3bc2e813f5, 2020-09-07)"
   sodipodi:docname="chaser (temp).svg">
  <defs
     id="defs1397">
    <linearGradient
       inkscape:collect="always"
       xlink:href="#linearGradient6774"
       id="linearGradient1923"
       gradientUnits="userSpaceOnUse"
       gradientTransform="translate(3560.2413,-2739.0828)"
       x1="1357.3239"
       y1="2910.7952"
       x2="1277.2231"
       y2="2915.9268" />
    <linearGradient
       inkscape:collect="always"
       id="linearGradient6774">
      <stop
         style="stop-color:#800000;stop-opacity:1;"
         offset="0"
         id="stop6770" />
      <stop
         style="stop-color:#800000;stop-opacity:0;"
         offset="1"
         id="stop6772" />
    </linearGradient>
    <linearGradient
       inkscape:collect="always"
       xlink:href="#linearGradient6782"
       id="linearGradient1925"
       gradientUnits="userSpaceOnUse"
       gradientTransform="translate(3560.2413,-2739.0828)"
       x1="1357.3239"
       y1="2910.7952"
       x2="1277.2231"
       y2="2915.9268" />
    <linearGradient
       inkscape:collect="always"
       id="linearGradient6782">
      <stop
         style="stop-color:#000000;stop-opacity:1;"
         offset="0"
         id="stop6778" />
      <stop
         style="stop-color:#000000;stop-opacity:0;"
         offset="1"
         id="stop6780" />
    </linearGradient>
    <linearGradient
       inkscape:collect="always"
       xlink:href="#linearGradient6774"
       id="linearGradient1919"
       gradientUnits="userSpaceOnUse"
       gradientTransform="translate(3560.2413,-2739.0828)"
       x1="1347.3739"
       y1="2884.9443"
       x2="1275.9489"
       y2="2883.5837" />
    <linearGradient
       inkscape:collect="always"
       xlink:href="#linearGradient6782"
       id="linearGradient1921"
       gradientUnits="userSpaceOnUse"
       gradientTransform="translate(3560.2413,-2739.0828)"
       x1="1347.3739"
       y1="2884.9443"
       x2="1275.9489"
       y2="2883.5837" />
    <linearGradient
       inkscape:collect="always"
       xlink:href="#linearGradient6774"
       id="linearGradient1915"
       gradientUnits="userSpaceOnUse"
       gradientTransform="translate(3560.2413,-2739.0828)"
       x1="1340.8767"
       y1="2896.6519"
       x2="1277.9191"
       y2="2895.6023" />
    <linearGradient
       inkscape:collect="always"
       xlink:href="#linearGradient6782"
       id="linearGradient1917"
       gradientUnits="userSpaceOnUse"
       gradientTransform="translate(3560.2413,-2739.0828)"
       x1="1340.8767"
       y1="2896.6519"
       x2="1277.9191"
       y2="2895.6023" />
    <linearGradient
       inkscape:collect="always"
       xlink:href="#linearGradient6774"
       id="linearGradient1911"
       gradientUnits="userSpaceOnUse"
       gradientTransform="translate(3560.2413,-2739.0828)"
       x1="1332.3455"
       y1="2867.6074"
       x2="1272.1003"
       y2="2868.7981" />
    <linearGradient
       inkscape:collect="always"
       xlink:href="#linearGradient6782"
       id="linearGradient1913"
       gradientUnits="userSpaceOnUse"
       gradientTransform="translate(3560.2413,-2739.0828)"
       x1="1332.3455"
       y1="2867.6074"
       x2="1272.1003"
       y2="2868.7981" />
    <linearGradient
       inkscape:collect="always"
       xlink:href="#linearGradient6774"
       id="linearGradient1907"
       gradientUnits="userSpaceOnUse"
       gradientTransform="translate(3560.2413,-2739.0828)"
       x1="1335.9358"
       y1="2842.7981"
       x2="1271.2397"
       y2="2842.2881" />
    <linearGradient
       inkscape:collect="always"
       xlink:href="#linearGradient6782"
       id="linearGradient1909"
       gradientUnits="userSpaceOnUse"
       gradientTransform="translate(3560.2413,-2739.0828)"
       x1="1335.9358"
       y1="2842.7981"
       x2="1271.2397"
       y2="2842.2881" />
    <linearGradient
       inkscape:collect="always"
       xlink:href="#linearGradient6774"
       id="linearGradient1903"
       gradientUnits="userSpaceOnUse"
       gradientTransform="translate(3560.2413,-2739.0828)"
       x1="1319.1328"
       y1="2856.0239"
       x2="1273.2144"
       y2="2853.3025" />
    <linearGradient
       inkscape:collect="always"
       xlink:href="#linearGradient6782"
       id="linearGradient1905"
       gradientUnits="userSpaceOnUse"
       gradientTransform="translate(3560.2413,-2739.0828)"
       x1="1319.1328"
       y1="2856.0239"
       x2="1273.2144"
       y2="2853.3025" />
    <linearGradient
       inkscape:collect="always"
       xlink:href="#linearGradient6774"
       id="linearGradient1901"
       gradientUnits="userSpaceOnUse"
       gradientTransform="matrix(1,0,0,0.92436954,3558.4579,-2515.8297)"
       x1="1262.7151"
       y1="2884.3445"
       x2="1336.6869"
       y2="2846.0549" />
  </defs>
  <sodipodi:namedview
     id="base"
     pagecolor="#ffffff"
     bordercolor="#666666"
     borderopacity="1.0"
     inkscape:pageopacity="0.0"
     inkscape:pageshadow="2"
     inkscape:zoom="0.35"
     inkscape:cx="400"
     inkscape:cy="560"
     inkscape:document-units="mm"
     inkscape:current-layer="layer1"
     inkscape:document-rotation="0"
     showgrid="false"
     inkscape:window-width="1267"
     inkscape:window-height="1032"
     inkscape:window-x="182"
     inkscape:window-y="0"
     inkscape:window-maximized="0" />
  <metadata
     id="metadata1400">
    <rdf:RDF>
      <cc:Work
         rdf:about="">
        <dc:format>image/svg+xml</dc:format>
        <dc:type
           rdf:resource="http://purl.org/dc/dcmitype/StillImage" />
        <dc:title></dc:title>
      </cc:Work>
    </rdf:RDF>
  </metadata>
  <g
     inkscape:label="Layer 1"
     inkscape:groupmode="layer"
     id="layer1">
    <g
       id="g3551"
       transform="matrix(1.5562426,0,0,1.5562426,-7514.76,-53.558941)">
      <path
         id="path1759"
         style="display:inline;fill:url(#linearGradient1923);fill-opacity:1;stroke:url(#linearGradient1925);stroke-width:1.92641;stroke-linecap:butt;stroke-linejoin:miter;stroke-miterlimit:4;stroke-dasharray:none;stroke-opacity:1"
         d="m 4836.9123,163.71567 c -0.5813,7.75869 9.9744,13.17159 19.2677,14.7634 10.4401,2.09198 20.5645,-1.49971 29.5856,-4.9581 5.0808,-3.78884 22.2316,-0.11042 13.6526,4.60668 -4.8004,-1.24362 -9.2236,1.07929 -4.3082,2.27941 7.291,1.97051 16.2378,-3.0444 13.1323,-7.8409 -3.6107,-6.99971 -17.1665,-6.8771 -25.3142,-4.05114 -8.3295,2.68573 -17.6833,5.43745 -27.2122,3.59373 -7.3011,-0.95379 -12.9536,-4.68929 -18.1319,-8.30448 z"
         sodipodi:nodetypes="cccccccccc" />
      <path
         id="path1761"
         style="display:inline;fill:url(#linearGradient1919);fill-opacity:1;stroke:url(#linearGradient1921);stroke-width:1.79462;stroke-linecap:butt;stroke-linejoin:miter;stroke-miterlimit:4;stroke-dasharray:none;stroke-opacity:1"
         d="m 4838.2859,144.46207 c 5.6016,-2.115 12.6113,-3.7428 18.8256,-1.56692 10.829,3.30372 18.8086,11.53131 31.7103,11.19672 8.9871,0.23379 17.4992,-6.6688 12.8581,-12.53072 -2.694,-5.12961 -16.4416,-5.62163 -16.5521,0.73861 -1.4214,3.73071 10.9266,3.90988 3.9266,1.20748 0.3317,-6.37738 13.1765,1.82843 4.7918,4.45299 -7.4491,3.1378 -15.5578,-1.11477 -21.53,-4.08416 -8.142,-4.45675 -20.3358,-8.01071 -29.9488,-3.57791 -1.8083,0.9838 -4.3235,2.42078 -4.0815,4.16391 z" />
      <path
         id="path1763"
         style="display:inline;fill:url(#linearGradient1915);fill-opacity:1;stroke:url(#linearGradient1917);stroke-width:1.82281;stroke-linecap:butt;stroke-linejoin:miter;stroke-miterlimit:4;stroke-dasharray:none;stroke-opacity:1"
         d="m 4836.1506,153.27246 c -0.7034,-5.40981 7.2236,-9.40121 12.1504,-5.36991 6.881,5.06722 8.0075,14.49441 17.4264,17.4276 9.9651,3.18781 19.2721,-3.90339 29.3133,-2.54748 -2.2108,-3.93491 -11.7012,-2.43232 -16.8052,-1.45511 -6.4494,1.80671 -13.9631,-0.083 -16.8931,-5.4212 -3.7382,-5.54739 -7.8941,-12.65251 -16.5382,-13.29103 -6.3894,-1.04746 -14.0176,6.38463 -8.6536,10.65713 z" />
      <path
         id="path1765"
         style="display:inline;fill:url(#linearGradient1911);fill-opacity:1;stroke:url(#linearGradient1913);stroke-width:1.82281;stroke-linecap:butt;stroke-linejoin:miter;stroke-miterlimit:4;stroke-dasharray:none;stroke-opacity:1"
         d="m 4834.6563,131.16014 c 4.4645,-4.12467 11.9479,-3.81939 16.9935,-0.60838 7.3656,4.6545 17.255,8.43941 26.4663,5.27939 5.6083,-1.71871 12.1116,-7.20468 8.3035,-12.34538 -3.0618,-4.64301 -12.8356,-0.68895 -9.1248,3.99859 2.3448,2.32709 0.124,-6.31449 5.4624,-3.18489 3.8751,5.80538 -7.8884,9.83059 -13.7451,8.88357 -10.0219,-0.48628 -17.1268,-9.46489 -27.6332,-7.46768 -2.981,0.62669 -6.9084,2.56331 -6.7226,5.44478 z" />
      <path
         id="path1767"
         style="display:inline;fill:url(#linearGradient1907);fill-opacity:1;stroke:url(#linearGradient1909);stroke-width:1.82281;stroke-linecap:butt;stroke-linejoin:miter;stroke-miterlimit:4;stroke-dasharray:none;stroke-opacity:1"
         d="m 4832.7298,96.655559 c 3.0199,-5.13019 11.146,-8.33969 17.3921,-4.968 6.9662,3.7451 6.59,12.938901 14.9724,15.507601 6.3437,2.21689 11.1966,-2.89081 16.5376,-4.5957 3.3253,-1.45421 8.8746,3.70691 3.4307,4.1403 -0.997,-3.35021 -3.0256,-3.3283 -3.0196,1.59891 5.3762,4.28156 13.5431,-5.0899 6.0645,-7.4448 -5.4985,-2.871921 -11.3915,0.53049 -15.9881,3.02366 -8.6286,3.73563 -12.0671,-6.068381 -15.4431,-10.570871 -4.6006,-6.48322 -17.138,-7.13341 -22.2785,-0.79034 -0.8931,1.15655 -2.1397,2.65274 -1.668,4.09924 z"
         sodipodi:nodetypes="ccccccccccc" />
      <path
         id="path1769"
         style="display:inline;fill:url(#linearGradient1903);fill-opacity:1;stroke:url(#linearGradient1905);stroke-width:1.82281;stroke-linecap:butt;stroke-linejoin:miter;stroke-miterlimit:4;stroke-dasharray:none;stroke-opacity:1"
         d="m 4839.7154,105.21957 c 6.206,1.60057 10.9695,5.91209 11.8724,11.3384 1.3157,6.0411 9.4241,10.08068 16.4033,7.72488 8.2639,-0.28199 8.4774,-12.71791 -0.4458,-9.58368 -2.7123,1.46989 -1.6902,4.9694 0.5483,1.58988 7.8233,-0.30562 -0.943,7.79851 -5.6295,5.32728 -7.1578,-0.77126 -7.0285,-7.78219 -10.3241,-11.76726 -2.551,-2.99771 -7.9062,-6.14932 -12.4246,-4.6295 z" />
      <path
         id="path1865"
         style="fill:url(#linearGradient1901);fill-opacity:1;stroke:none;stroke-width:0.332938px;stroke-linecap:butt;stroke-linejoin:miter;stroke-opacity:1"
         d="m 4849.7266,67.655959 c -0.8963,23.32347 -0.08,53.340371 0.1202,77.368301 0.8644,13.31931 -0.8943,39.5147 -0.4175,49.35979 35.2816,-0.18558 99.6622,0.7675 89.5722,-0.78788 11.7198,-2.03332 6.1913,-25.59841 4.7816,-32.699 -6.5342,-10.55794 -13.1529,-24.85782 -12.8167,-36.4094 3.7803,-13.44692 -26.7304,-6.47012 -24.6766,-19.95921 -5.7965,-12.966121 -15.5403,-5.847191 -22.4077,-17.239591 -5.2964,-4.9616 -25.7946,-19.3398 -34.1555,-19.63301 z"
         sodipodi:nodetypes="ccccccccc" />
    </g>
  </g>
</svg>
