<?xml version="1.0" encoding="UTF-8" standalone="no"?>
<svg
   xmlns:dc="http://purl.org/dc/elements/1.1/"
   xmlns:cc="http://creativecommons.org/ns#"
   xmlns:rdf="http://www.w3.org/1999/02/22-rdf-syntax-ns#"
   xmlns:svg="http://www.w3.org/2000/svg"
   xmlns="http://www.w3.org/2000/svg"
   xmlns:sodipodi="http://sodipodi.sourceforge.net/DTD/sodipodi-0.dtd"
   xmlns:inkscape="http://www.inkscape.org/namespaces/inkscape"
   width="210mm"
   height="297mm"
   viewBox="0 0 210 297"
   version="1.1"
   id="svg791"
   inkscape:version="1.0.1 (3bc2e813f5, 2020-09-07)"
   sodipodi:docname="F evil soul.svg">
  <defs
     id="defs785" />
  <sodipodi:namedview
     id="base"
     pagecolor="#ffffff"
     bordercolor="#666666"
     borderopacity="1.0"
     inkscape:pageopacity="0.0"
     inkscape:pageshadow="2"
     inkscape:zoom="0.35"
     inkscape:cx="400"
     inkscape:cy="560"
     inkscape:document-units="mm"
     inkscape:current-layer="layer1"
     inkscape:document-rotation="0"
     showgrid="false"
     inkscape:window-width="1267"
     inkscape:window-height="1032"
     inkscape:window-x="78"
     inkscape:window-y="0"
     inkscape:window-maximized="0" />
  <metadata
     id="metadata788">
    <rdf:RDF>
      <cc:Work
         rdf:about="">
        <dc:format>image/svg+xml</dc:format>
        <dc:type
           rdf:resource="http://purl.org/dc/dcmitype/StillImage" />
        <dc:title></dc:title>
      </cc:Work>
    </rdf:RDF>
  </metadata>
  <g
     inkscape:label="Layer 1"
     inkscape:groupmode="layer"
     id="layer1">
    <g
       id="g2010"
       transform="matrix(4.2891882,0,0,4.2891882,-1069.8053,-731.79308)"
       style="display:inline">
      <path
         style="fill:#800000;fill-opacity:1;stroke:#000000;stroke-width:0.93304;stroke-linecap:round;stroke-linejoin:round;stroke-miterlimit:4;stroke-dasharray:none;stroke-opacity:1"
         d="m 276.51723,213.54047 1.24476,6.05298 -6.39727,-8.18424 1.32472,7.52455 -5.59912,-5.61819 1.28678,7.95726 -5.12732,-7.23659 -0.10672,4.51316 -5.25143,-5.80154 -1.1446,2.72045 -2.22759,-3.52312 -1.7289,-0.38278 2.29804,-9.21469 -2.54433,-8.99301 8.09852,9.29026 5.54221,-13.95499 1.09399,7.19384 2.12359,-3.57573 1.85814,7.32322 6.37076,-8.60365 -0.10865,13.39337 3.65931,-5.5856 -0.63081,7.41647 2.38902,-2.79502 -0.5653,5.50164 12.56294,2.38298 -13.145,1.9932 1.66661,3.99395 z"
         id="path2006"
         sodipodi:nodetypes="ccccccccccccccccccccccccccccc" />
      <path
         id="path2008"
         style="fill:#800000;fill-opacity:1;fill-rule:evenodd;stroke:#000000;stroke-width:0.80749;stroke-linecap:round;stroke-linejoin:round;stroke-miterlimit:4;stroke-dasharray:none"
         d="m 256.8215,206.20817 c 0.96891,-0.26073 1.93782,-0.52145 2.90672,-0.78218 0.0394,0.47431 0.0789,0.94861 0.11831,1.4229 -0.96891,0.26074 -1.93782,0.52145 -2.90672,0.78219 -0.0394,-0.47432 -0.0789,-0.94861 -0.11831,-1.42291 z" />
    </g>
  </g>
</svg>
