<?xml version="1.0" encoding="UTF-8" standalone="no"?>
<svg
   xmlns:dc="http://purl.org/dc/elements/1.1/"
   xmlns:cc="http://creativecommons.org/ns#"
   xmlns:rdf="http://www.w3.org/1999/02/22-rdf-syntax-ns#"
   xmlns:svg="http://www.w3.org/2000/svg"
   xmlns="http://www.w3.org/2000/svg"
   xmlns:sodipodi="http://sodipodi.sourceforge.net/DTD/sodipodi-0.dtd"
   xmlns:inkscape="http://www.inkscape.org/namespaces/inkscape"
   width="210mm"
   height="297mm"
   viewBox="0 0 210 297"
   version="1.1"
   id="svg724"
   inkscape:version="1.0.1 (3bc2e813f5, 2020-09-07)"
   sodipodi:docname="small chimney.svg">
  <defs
     id="defs718" />
  <sodipodi:namedview
     id="base"
     pagecolor="#ffffff"
     bordercolor="#666666"
     borderopacity="1.0"
     inkscape:pageopacity="0.0"
     inkscape:pageshadow="2"
     inkscape:zoom="0.35"
     inkscape:cx="400"
     inkscape:cy="560"
     inkscape:document-units="mm"
     inkscape:current-layer="layer1"
     inkscape:document-rotation="0"
     showgrid="false"
     inkscape:window-width="1920"
     inkscape:window-height="1009"
     inkscape:window-x="-8"
     inkscape:window-y="-8"
     inkscape:window-maximized="1" />
  <metadata
     id="metadata721">
    <rdf:RDF>
      <cc:Work
         rdf:about="">
        <dc:format>image/svg+xml</dc:format>
        <dc:type
           rdf:resource="http://purl.org/dc/dcmitype/StillImage" />
        <dc:title></dc:title>
      </cc:Work>
    </rdf:RDF>
  </metadata>
  <g
     inkscape:label="Layer 1"
     inkscape:groupmode="layer"
     id="layer1">
    <g
       id="g3623"
       style="display:inline;fill:#2f3c9b;fill-opacity:1"
       transform="matrix(3.3558898,0,0,3.3321162,-732.29467,-526.2465)">
      <g
         id="g3617"
         transform="translate(-50.088676,0.44696765)"
         style="fill:#2f3c9b;fill-opacity:1">
        <path
           id="path3613"
           style="fill:#2f3c9b;fill-opacity:1;fill-rule:evenodd;stroke:#000000;stroke-width:1.2;stroke-linecap:round;stroke-linejoin:round;stroke-miterlimit:4;stroke-dasharray:none;stroke-opacity:1"
           d="m 300.70372,187.11873 c -0.0115,4.40149 0.18676,9.70263 0.14543,14.10339 -0.16101,3.00617 -2.9835,4.69926 -5.99278,4.7833 -1.62283,0.0947 -3.33265,-0.11953 -4.66725,-1.12657 -1.79196,-1.23325 -2.50157,-2.14011 -2.34673,-4.28853 0.0116,-4.4433 -0.43181,-9.21448 -0.39047,-13.65706 6.87338,0.30159 7.0808,5.3e-4 13.2518,0.18547 z"
           sodipodi:nodetypes="ccccccc" />
        <path
           id="path3615"
           style="fill:#2f3c9b;fill-opacity:1;fill-rule:evenodd;stroke:#000000;stroke-width:1.2;stroke-linecap:round;stroke-linejoin:round;stroke-miterlimit:4;stroke-dasharray:none;stroke-opacity:1"
           d="m 283.75086,202.00104 20.82508,-0.16337 6.04453,13.31589 H 276.8895 Z"
           sodipodi:nodetypes="ccccc" />
      </g>
      <path
         id="path3619"
         style="fill:#2f3c9b;fill-opacity:1;fill-rule:evenodd;stroke:#000000;stroke-width:1.2;stroke-linecap:round;stroke-linejoin:round;stroke-miterlimit:4;stroke-dasharray:none;stroke-opacity:1"
         d="m 250.63103,187.56798 c -0.0115,4.40149 0.18676,9.70263 0.14543,14.10339 -0.16101,3.00617 -2.9835,4.69926 -5.99278,4.7833 -1.62283,0.0947 -3.33265,-0.11953 -4.66725,-1.12657 -1.79196,-1.23325 -2.50157,-2.14011 -2.34673,-4.28853 0.0116,-4.4433 -0.43181,-9.21448 -0.39047,-13.65706 6.87338,0.30159 7.0808,5.3e-4 13.2518,0.18547 z"
         sodipodi:nodetypes="ccccccc" />
      <path
         id="path3621"
         style="fill:#2f3c9b;fill-opacity:1;fill-rule:evenodd;stroke:#000000;stroke-width:1.2;stroke-linecap:round;stroke-linejoin:round;stroke-miterlimit:4;stroke-dasharray:none;stroke-opacity:1"
         d="m 233.66218,202.44801 20.82508,-0.16337 6.04453,13.31589 h -33.73097 z"
         sodipodi:nodetypes="ccccc" />
    </g>
  </g>
</svg>
